<svg width="130" height="31" viewBox="0 0 130 31" fill="none" xmlns="http://www.w3.org/2000/svg">
<path d="M129.962 15.6749C129.962 20.8889 126.893 24.8159 122.141 24.8159C120.062 24.8159 118.28 23.9249 116.96 22.2089V30.8549H112.373V6.86394H116.597V9.43794C117.95 7.55694 119.897 6.53394 122.141 6.53394C126.893 6.53394 129.962 10.4939 129.962 15.6749ZM125.243 15.6749C125.243 12.3749 123.362 10.5929 121.118 10.5929C118.874 10.5929 116.993 12.3419 116.993 15.6749C116.993 19.0079 118.874 20.7239 121.118 20.7239C123.362 20.7239 125.243 19.0409 125.243 15.6749Z" fill="#E35A00"/>
<path d="M110.007 2.772C110.007 4.323 108.753 5.478 106.938 5.478C105.156 5.478 103.902 4.323 103.902 2.772C103.902 1.155 105.156 0 106.938 0C108.753 0 110.007 1.155 110.007 2.772ZM109.281 24.486H104.694V6.864H109.281V24.486Z" fill="#E35A00"/>
<path d="M96.7999 15.939V24.486H92.2129V6.86402H96.4369V10.263C97.7239 8.01902 100.463 6.66602 103.301 6.66602V11.418C99.4069 11.121 96.7999 12.045 96.7999 15.939Z" fill="#E35A00"/>
<path d="M90.2374 20.0309V24.0239C89.1154 24.5849 88.0594 24.8159 86.7064 24.8159C83.0764 24.8159 80.7994 22.7369 80.7994 18.7769V10.7909H78.2354V6.8639H80.7994V1.6499H85.3534V6.8639H90.4024V10.7909H85.3534V17.7209C85.3534 19.7669 86.2774 20.5919 87.9274 20.5919C88.7854 20.5919 89.5774 20.3939 90.2374 20.0309Z" fill="#E35A00"/>
<path d="M76.4162 24.486H61.4012V20.79L70.4762 10.824H61.3682V6.86401H76.1522V10.626L67.0442 20.493H76.4162V24.486Z" fill="#E35A00"/>
<path d="M51.2428 24.486L47.9098 13.035L44.6098 24.486H40.0228L35.0068 6.86401H39.4618L42.4648 18.018L45.6988 6.86401H50.2198L53.3548 18.018L56.3248 6.86401H60.8458L55.7968 24.486H51.2428Z" fill="#E35A00"/>
<path d="M26.36 24.8159C21.245 24.8159 17.417 20.7899 17.417 15.6749C17.417 10.5269 21.245 6.53394 26.36 6.53394C31.475 6.53394 35.303 10.5269 35.303 15.6749C35.303 20.7899 31.475 24.8159 26.36 24.8159ZM26.36 20.7569C28.637 20.7569 30.584 18.9419 30.584 15.6749C30.584 12.4079 28.637 10.6259 26.36 10.6259C24.083 10.6259 22.136 12.4079 22.136 15.6749C22.136 18.9419 24.083 20.7569 26.36 20.7569Z" fill="#E35A00"/>
<path d="M4.587 14.883V24.486H0V0.791992H4.587V9.17399C5.808 7.55699 7.326 6.53399 9.636 6.53399C13.167 6.53399 15.609 8.84399 15.609 13.101V24.486H11.055V14.652C11.055 12.045 10.032 10.593 7.953 10.593C6.138 10.593 4.587 12.045 4.587 14.883Z" fill="#E35A00"/>
</svg>
