<svg width="157" height="42" viewBox="0 0 157 42" fill="none" xmlns="http://www.w3.org/2000/svg">
<path d="M156.309 26.708V32.032C154.813 32.78 153.405 33.088 151.601 33.088C146.761 33.088 143.725 30.316 143.725 25.036V14.388H138.973V9.15195H143.725V2.19995H149.797V9.15195H156.529V14.388H149.797V23.628C149.797 26.356 151.029 27.456 153.229 27.456C154.373 27.456 155.429 27.192 156.309 26.708Z" fill="#E35A00"/>
<path d="M139.758 25.1239C139.758 30.0519 136.018 33.0879 129.33 33.0879C122.642 33.0879 118.902 29.8759 118.418 24.6399H124.27C124.314 27.0599 126.382 28.5999 129.418 28.5999C131.794 28.5999 133.598 27.8519 133.598 26.1799C133.598 24.6839 132.63 24.0679 130.386 23.6279L126.162 22.8359C121.938 22.0879 119.386 19.7559 119.386 16.1039C119.386 11.7479 123.126 8.71191 128.978 8.71191C134.874 8.71191 138.922 11.8359 139.362 16.8959H133.51C133.29 14.6079 131.574 13.1999 128.978 13.1999C126.734 13.1999 125.238 14.0359 125.238 15.5319C125.238 16.9399 126.206 17.5119 128.318 17.9079L132.85 18.7439C137.426 19.6239 139.758 21.7359 139.758 25.1239Z" fill="#E35A00"/>
<path d="M105.847 33.0879C99.0268 33.0879 93.9229 27.7199 93.9229 20.8999C93.9229 14.0359 99.0268 8.71191 105.847 8.71191C112.667 8.71191 117.771 14.0359 117.771 20.8999C117.771 27.7199 112.667 33.0879 105.847 33.0879ZM105.847 27.6759C108.883 27.6759 111.479 25.2559 111.479 20.8999C111.479 16.5439 108.883 14.1679 105.847 14.1679C102.811 14.1679 100.215 16.5439 100.215 20.8999C100.215 25.2559 102.811 27.6759 105.847 27.6759Z" fill="#E35A00"/>
<path d="M77.2576 19.8439V32.6479H71.1416V1.05591H77.2576V12.2319C78.8856 10.0759 80.9096 8.71191 83.9896 8.71191C88.6976 8.71191 91.9536 11.7919 91.9536 17.4679V32.6479H85.8816V19.5359C85.8816 16.0599 84.5176 14.1239 81.7456 14.1239C79.3256 14.1239 77.2576 16.0599 77.2576 19.8439Z" fill="#E35A00"/>
<path d="M68.9823 20.8999C68.9823 27.8519 64.8903 33.0879 58.5543 33.0879C55.7823 33.0879 53.4063 31.8999 51.6463 29.6119V41.1399H45.5303V9.15191H51.1623V12.5839C52.9663 10.0759 55.5623 8.71191 58.5543 8.71191C64.8903 8.71191 68.9823 13.9919 68.9823 20.8999ZM62.6903 20.8999C62.6903 16.4999 60.1823 14.1239 57.1903 14.1239C54.1983 14.1239 51.6903 16.4559 51.6903 20.8999C51.6903 25.3439 54.1983 27.6319 57.1903 27.6319C60.1823 27.6319 62.6903 25.3879 62.6903 20.8999Z" fill="#E35A00"/>
<path d="M42.8158 3.696C42.8158 5.764 41.1438 7.304 38.7238 7.304C36.3478 7.304 34.6758 5.764 34.6758 3.696C34.6758 1.54 36.3478 0 38.7238 0C41.1438 0 42.8158 1.54 42.8158 3.696ZM41.8478 32.648H35.7318V9.152H41.8478V32.648Z" fill="#E35A00"/>
<path d="M25.6463 21.2519V32.6479H19.5303V9.15194H25.1623V13.6839C26.8783 10.6919 30.5303 8.88794 34.3143 8.88794V15.2239C29.1223 14.8279 25.6463 16.0599 25.6463 21.2519Z" fill="#E35A00"/>
<path d="M17.336 26.708V32.032C15.84 32.78 14.432 33.088 12.628 33.088C7.788 33.088 4.752 30.316 4.752 25.036V14.388H0V9.15195H4.752V2.19995H10.824V9.15195H17.556V14.388H10.824V23.628C10.824 26.356 12.056 27.456 14.256 27.456C15.4 27.456 16.456 27.192 17.336 26.708Z" fill="#E35A00"/>
</svg>
